<svg width="216" height="58" viewBox="0 0 216 58" fill="none" xmlns="http://www.w3.org/2000/svg">
<path d="M11.44 26.68C12.8 27.26 13.6 28.3 13.6 29.84C13.6 32.56 11.78 34 7.98 34H3.02C2.52 34 2.12 33.6 2.12 33.1V20.88C2.12 20.4 2.52 20 3.02 20H7.44C11.3 20 13.08 21.22 13.08 23.76C13.08 25.14 12.48 26.04 11.44 26.6V26.68ZM7.26 23.06H6.26V25.54H7.26C8.32 25.54 8.88 25.08 8.88 24.3C8.88 23.46 8.24 23.06 7.26 23.06ZM7.8 30.76C8.8 30.76 9.42 30.32 9.42 29.5C9.42 28.64 8.8 28.24 7.8 28.24H6.26V30.76H7.8ZM24.3459 20H26.7059C27.1859 20 27.5859 20.4 27.5859 20.88V28.3C27.5859 32.46 25.1859 34.24 21.3859 34.24C17.5859 34.24 15.1859 32.46 15.1859 28.3V20.88C15.1859 20.4 15.5859 20 16.0659 20H18.4259C18.9259 20 19.3259 20.4 19.3259 20.88V27.94C19.3259 29.5 20.1059 30.24 21.3859 30.24C22.6659 30.24 23.4459 29.5 23.4459 27.94V20.88C23.4459 20.4 23.8459 20 24.3459 20ZM38.2948 34C37.9548 34 37.6548 33.8 37.4948 33.5L35.4748 29.48H33.9548V33.1C33.9548 33.6 33.5548 34 33.0548 34H30.6948C30.2148 34 29.8148 33.6 29.8148 33.1V20.88C29.8148 20.4 30.2148 20 30.6948 20H35.5548C39.4148 20 41.2948 21.94 41.2948 25.02C41.2948 26.8 40.5548 28.02 39.2748 28.72L41.8148 33.2C42.0348 33.56 41.7748 34 41.3548 34H38.2948ZM33.9548 23.76V26.26H35.5548C36.4748 26.26 37.0948 25.92 37.0948 25.02C37.0948 24.18 36.6348 23.76 35.5548 23.76H33.9548ZM51.9472 20.88C51.9472 20.4 52.3472 20 52.8472 20H55.1872C55.6672 20 56.0672 20.4 56.0672 20.88V33.1C56.0672 33.6 55.6672 34 55.1872 34H52.9472C52.5872 34 52.2472 33.82 52.0472 33.5L47.6072 26.54V33.1C47.6072 33.6 47.2072 34 46.7272 34H44.3672C43.8672 34 43.4672 33.6 43.4672 33.1V20.88C43.4672 20.4 43.8672 20 44.3672 20H46.5872C46.9472 20 47.2872 20.18 47.4872 20.5L51.9472 27.46V20.88ZM74.3773 28.2C74.7773 28.2 75.0973 28.52 75.0973 28.9V31.04C75.0973 31.44 74.7773 31.76 74.3773 31.76H73.6173V33.1C73.6173 33.6 73.2173 34 72.7373 34H70.3773C69.8773 34 69.4773 33.6 69.4773 33.1V31.76H64.3773C63.8773 31.76 63.4773 31.36 63.4773 30.86V28.94C63.4773 28.68 63.5573 28.44 63.6773 28.2L68.3173 20.52C68.4973 20.2 68.8573 20 69.2173 20H72.7373C73.2173 20 73.6173 20.4 73.6173 20.88V28.2H74.3773ZM67.2173 28.2H69.4773V24.42L67.2173 28.2ZM96.0902 33.08C96.4302 33.4 96.1902 34 95.7102 34H93.0102C92.7102 34 92.4302 33.9 92.1902 33.7L91.5702 33.16C90.3502 33.86 88.9102 34.24 87.3902 34.24C84.4902 34.24 81.9102 32.88 81.9102 30.1C81.9102 28.44 82.9902 27.22 84.4302 26.54C83.7702 25.58 83.3502 24.6 83.3502 23.6C83.3502 21.28 85.1102 19.74 87.9102 19.74C91.0302 19.74 92.4702 21.42 92.4702 23.38C92.4702 25.14 91.3302 26.38 89.4102 26.86C90.0702 27.44 90.7702 28.04 91.4102 28.64C91.5302 28.4 91.6302 28.16 91.7102 27.9C91.8302 27.46 92.2702 27.2 92.7102 27.28L94.2102 27.56C94.7102 27.64 95.0302 28.12 94.9302 28.6C94.7302 29.5 94.3702 30.3 93.8902 31.02C94.6502 31.72 95.4702 32.5 96.0902 33.08ZM87.9102 22.78C87.2902 22.78 86.9102 23.2 86.9102 23.78C86.9102 24.16 87.1502 24.6 87.5502 25.08C88.2902 24.96 88.9102 24.36 88.9102 23.7C88.9102 23.18 88.5302 22.78 87.9102 22.78ZM85.8502 29.74C85.8502 30.76 86.7502 31.2 87.7502 31.2C88.1502 31.2 88.5502 31.12 88.9702 30.96C88.1302 30.3 87.1702 29.52 86.2902 28.68C86.0302 28.94 85.8502 29.3 85.8502 29.74ZM112.064 34C111.724 34 111.424 33.8 111.264 33.5L109.244 29.48H107.724V33.1C107.724 33.6 107.324 34 106.824 34H104.464C103.984 34 103.584 33.6 103.584 33.1V20.88C103.584 20.4 103.984 20 104.464 20H109.324C113.184 20 115.064 21.94 115.064 25.02C115.064 26.8 114.324 28.02 113.044 28.72L115.584 33.2C115.804 33.56 115.544 34 115.124 34H112.064ZM107.724 23.76V26.26H109.324C110.244 26.26 110.864 25.92 110.864 25.02C110.864 24.18 110.404 23.76 109.324 23.76H107.724ZM121.377 30.6H125.857C126.337 30.6 126.737 30.98 126.737 31.48V33.1C126.737 33.6 126.337 34 125.857 34H118.117C117.637 34 117.237 33.6 117.237 33.1V20.88C117.237 20.4 117.637 20 118.117 20H125.657C126.157 20 126.557 20.4 126.557 20.88V22.52C126.557 23 126.157 23.4 125.657 23.4H121.377V25.32H125.037C125.517 25.32 125.917 25.72 125.917 26.2V27.66C125.917 28.16 125.517 28.56 125.037 28.56H121.377V30.6ZM133.905 20C138.565 20 141.445 22.66 141.445 27C141.445 31.34 138.565 34 133.905 34H129.465C128.965 34 128.565 33.6 128.565 33.1V20.88C128.565 20.4 128.965 20 129.465 20H133.905ZM133.905 30.24C136.105 30.24 137.305 29 137.305 27C137.305 25 136.105 23.76 133.905 23.76H132.705V30.24H133.905ZM147.256 30.6H151.736C152.216 30.6 152.616 30.98 152.616 31.48V33.1C152.616 33.6 152.216 34 151.736 34H143.996C143.516 34 143.116 33.6 143.116 33.1V20.88C143.116 20.4 143.516 20 143.996 20H151.536C152.036 20 152.436 20.4 152.436 20.88V22.52C152.436 23 152.036 23.4 151.536 23.4H147.256V25.32H150.916C151.396 25.32 151.796 25.72 151.796 26.2V27.66C151.796 28.16 151.396 28.56 150.916 28.56H147.256V30.6ZM158.584 30.6H163.064C163.544 30.6 163.944 30.98 163.944 31.48V33.1C163.944 33.6 163.544 34 163.064 34H155.324C154.844 34 154.444 33.6 154.444 33.1V20.88C154.444 20.4 154.844 20 155.324 20H162.864C163.364 20 163.764 20.4 163.764 20.88V22.52C163.764 23 163.364 23.4 162.864 23.4H158.584V25.32H162.244C162.724 25.32 163.124 25.72 163.124 26.2V27.66C163.124 28.16 162.724 28.56 162.244 28.56H158.584V30.6ZM177.092 20.54C177.292 20.2 177.632 20 178.032 20H181.012C181.492 20 181.892 20.4 181.892 20.88V33.1C181.892 33.6 181.492 34 181.012 34H178.652C178.152 34 177.752 33.6 177.752 33.1V26.32L174.672 31.68C174.532 31.9 174.312 32.04 174.052 32.04H173.612C173.352 32.04 173.132 31.9 172.992 31.68L169.912 26.32V33.1C169.912 33.6 169.512 34 169.012 34H166.652C166.172 34 165.772 33.6 165.772 33.1V20.88C165.772 20.4 166.172 20 166.652 20H169.632C170.032 20 170.372 20.2 170.572 20.54L173.832 26.28L177.092 20.54ZM193.158 20.18C193.338 20.06 193.538 20 193.758 20H195.798C196.278 20 196.678 20.4 196.678 20.88V33.1C196.678 33.6 196.278 34 195.798 34H193.438C192.938 34 192.538 33.6 192.538 33.1V24.46L191.198 25.36C190.858 25.6 190.418 25.5 190.198 25.14L189.258 23.62C189.058 23.3 189.158 22.86 189.478 22.66L193.158 20.18Z" fill="black"/>
<path d="M0.292892 7.29289C-0.0976334 7.68342 -0.0976334 8.31658 0.292892 8.70711L6.65685 15.0711C7.04738 15.4616 7.68054 15.4616 8.07107 15.0711C8.46159 14.6805 8.46159 14.0474 8.07107 13.6569L2.41422 8L8.07107 2.34315C8.46159 1.95262 8.46159 1.31946 8.07107 0.928932C7.68054 0.538408 7.04738 0.538408 6.65685 0.928932L0.292892 7.29289ZM74 7L1 7V9L74 9V7Z" fill="black"/>
<path d="M193.707 50.7071C194.098 50.3166 194.098 49.6834 193.707 49.2929L187.343 42.9289C186.953 42.5384 186.319 42.5384 185.929 42.9289C185.538 43.3195 185.538 43.9526 185.929 44.3431L191.586 50L185.929 55.6569C185.538 56.0474 185.538 56.6805 185.929 57.0711C186.319 57.4616 186.953 57.4616 187.343 57.0711L193.707 50.7071ZM127 51H193V49H127V51Z" fill="black"/>
</svg>
