<svg width="163" height="30" viewBox="0 0 163 30" fill="none" xmlns="http://www.w3.org/2000/svg">
<path d="M6 12H12V24H6V12ZM12 6H6V-3.57628e-07H12V6ZM6 30H4.47035e-08V24H6V30ZM17.9883 6H23.9883V18H29.9883V6H35.9883V24H23.9883V18H17.9883V6ZM47.9824 12H53.9824V24H41.9824V18H47.9824V12ZM53.9824 6H59.9824V12H53.9824V6ZM77.9766 24H71.9766V18H65.9766V-3.57628e-07H71.9766V6H77.9766V12H71.9766V18H77.9766V24ZM95.9648 12H89.9648V6H101.965V24H83.9648V12H89.9648V18H95.9648V12ZM107.959 12H113.959V24H107.959V12ZM113.959 6H125.959V12H113.959V6ZM143.953 24H137.953V18H131.953V-3.57628e-07H137.953V6H143.953V12H137.953V18H143.953V24ZM156.601 1.2L156.001 6.96L161.761 5.34L162.181 8.1L156.661 8.55L160.231 13.29L157.651 14.7L155.101 9.45L152.791 14.7L150.121 13.29L153.631 8.55L148.171 8.1L148.591 5.34L154.291 6.96L153.661 1.2H156.601Z" fill="black"/>
</svg>
