<svg width="349" height="60" viewBox="0 0 349 60" fill="none" xmlns="http://www.w3.org/2000/svg">
<path d="M12 24H24V48H12V24ZM24 12H12V-7.15256e-07H24V12ZM12 60H8.9407e-08V48H12V60ZM35.9766 12H47.9766V36H59.9766V12H71.9766V48H47.9766V36H35.9766V12ZM95.9648 24H107.965V48H83.9648V36H95.9648V24ZM107.965 12H119.965V24H107.965V12ZM155.953 48H143.953V36H131.953V-7.15256e-07H143.953V12H155.953V24H143.953V36H155.953V48ZM215.953 24H203.953V12H227.953V48H191.953V24H203.953V36H215.953V24ZM239.941 24H251.941V48H239.941V24ZM251.941 12H275.941V24H251.941V12ZM311.93 48H299.93V36H287.93V-7.15256e-07H299.93V12H311.93V24H299.93V36H311.93V48Z" fill="white"/>
<path d="M337.226 2.4L336.026 13.92L347.546 10.68L348.386 16.2L337.346 17.1L344.486 26.58L339.326 29.4L334.226 18.9L329.606 29.4L324.266 26.58L331.286 17.1L320.366 16.2L321.206 10.68L332.606 13.92L331.346 2.4H337.226Z" fill="#0329F1"/>
</svg>
