<svg width="150" height="24" viewBox="0 0 150 24" fill="none" xmlns="http://www.w3.org/2000/svg">
<path d="M4.47035e-08 6H6V18H12V6H18V24H6V18H4.47035e-08V6ZM23.9941 6H35.9941V12H41.9941V24H35.9941V12H29.9941V24H23.9941V6ZM59.9883 24H53.9883V18H47.9883V-3.57628e-07H53.9883V6H59.9883V12H53.9883V18H59.9883V24ZM65.9766 12H71.9766V24H65.9766V12ZM71.9766 6H65.9766V-3.57628e-07H71.9766V6ZM89.9883 24H83.9883V18H77.9883V-3.57628e-07H83.9883V6H89.9883V12H83.9883V18H89.9883V24ZM95.9766 -3.57628e-07H101.977V24H95.9766V-3.57628e-07ZM125.988 24H113.988V18H107.988V6H125.988V12H113.988V18H125.988V24ZM137.982 6H143.982V-3.57628e-07H149.982V24H131.982V12H137.982V18H143.982V12H137.982V6Z" fill="black"/>
</svg>
